<svg width="781.44" height="110.04" viewBox="0 0 781.44 110.04" xmlns="http://www.w3.org/2000/svg"><g id="svgGroup" stroke-linecap="round" fill-rule="evenodd" font-size="9pt" stroke="#000" stroke-width="0.25mm" fill="black" style="stroke:white;stroke-width:0.25mm;fill:white"><path d="M 61.32 72.96 L 54.84 50.4 Q 54.575 49.804 54.201 49.537 A 1.145 1.145 0 0 0 53.52 49.32 L 26.52 49.32 Q 25.925 49.32 25.494 49.975 A 2.977 2.977 0 0 0 25.32 50.28 L 11.28 80.04 L 0.36 82.32 L 0 81.12 Q 10.68 63.12 20.94 44.76 Q 31.2 26.4 40.68 7.68 Q 40.793 7.343 40.8 6.9 A 3.751 3.751 0 0 0 40.8 6.84 Q 40.8 6.6 40.5 6.12 A 1.093 1.093 0 0 0 40.091 5.744 Q 39.919 5.649 39.696 5.588 A 2.767 2.767 0 0 0 39.36 5.52 L 28.56 3.72 L 28.56 0.48 L 51.84 0.48 A 156.903 156.903 0 0 0 52.376 3.101 Q 53.265 7.275 54.66 12.9 Q 56.52 20.4 58.8 28.62 Q 61.08 36.84 63 44.04 A 524.418 524.418 0 0 0 66.296 55.357 A 597.253 597.253 0 0 0 67.5 59.28 A 77.864 77.864 0 0 0 69.714 65.514 Q 71.327 69.478 73.2 72.6 Q 74.4 74.52 76.44 75.36 Q 78.48 76.2 80.88 76.2 Q 82.2 76.2 83.52 76.08 Q 84.84 75.96 86.04 75.84 L 86.16 78.96 L 73.68 82.56 Q 71.04 83.28 68.28 83.28 A 4.338 4.338 0 0 1 64.701 81.547 A 6.987 6.987 0 0 1 63.84 80.1 A 43.006 43.006 0 0 1 62.334 76.276 A 54.865 54.865 0 0 1 61.32 72.96 Z M 42.84 13.44 L 28.92 42.72 Q 28.8 42.84 28.8 43.26 L 28.8 43.8 A 1.209 1.209 0 0 0 28.842 44.132 Q 28.948 44.505 29.329 44.604 A 1.238 1.238 0 0 0 29.64 44.64 L 52.2 44.64 A 1.209 1.209 0 0 0 52.532 44.598 Q 52.905 44.492 53.004 44.111 A 1.238 1.238 0 0 0 53.04 43.8 L 52.92 43.32 A 13.438 13.438 0 0 1 52.879 43.153 Q 52.821 42.904 52.805 42.786 A 0.544 0.544 0 0 1 52.8 42.72 L 44.4 13.44 A 0.83 0.83 0 0 0 44.083 13.088 Q 43.929 12.996 43.726 12.97 A 1.321 1.321 0 0 0 43.56 12.96 Q 42.867 12.96 42.841 13.405 A 0.606 0.606 0 0 0 42.84 13.44 Z" id="0" vector-effect="non-scaling-stroke"/><path d="M 118.56 5.52 L 118.44 2.88 L 119.04 2.4 L 138.6 0 L 139.56 1.08 L 139.56 68.88 Q 139.8 71.52 140.64 73.92 A 3.942 3.942 0 0 0 141.341 75.186 Q 142.079 76.054 143.316 76.258 A 4.952 4.952 0 0 0 144.12 76.32 A 3.829 3.829 0 0 0 144.682 76.271 Q 145.606 76.132 147.205 75.593 A 36.161 36.161 0 0 0 147.36 75.54 Q 149.604 74.772 151.383 74.063 A 61.614 61.614 0 0 0 151.44 74.04 L 152.4 76.8 Q 148.92 79.2 144.66 81.78 A 22.372 22.372 0 0 1 141.839 83.242 Q 140.319 83.888 138.913 84.161 A 10.466 10.466 0 0 1 136.92 84.36 A 6.761 6.761 0 0 1 134.74 84.027 Q 132.907 83.406 131.812 81.626 A 7.134 7.134 0 0 1 131.76 81.54 Q 130.08 78.72 129.84 75.6 A 81.377 81.377 0 0 1 123.116 79.72 A 96.167 96.167 0 0 1 119.76 81.48 A 27.392 27.392 0 0 1 114.311 83.547 A 21.508 21.508 0 0 1 108.96 84.24 Q 104.39 84.24 101.184 82.545 A 12.068 12.068 0 0 1 100.38 82.08 Q 96.96 79.92 94.92 76.38 Q 92.88 72.84 91.98 68.64 A 39.952 39.952 0 0 1 91.123 62.224 A 35.583 35.583 0 0 1 91.08 60.48 Q 91.08 54.12 92.82 48.12 Q 94.56 42.12 98.04 37.26 Q 101.52 32.4 106.86 29.52 A 23.456 23.456 0 0 1 113.899 27.115 A 31.787 31.787 0 0 1 119.52 26.64 Q 122.16 26.64 124.62 27.12 Q 127.08 27.6 129.48 28.44 L 130.32 27.96 Q 130.32 24.72 130.26 21.12 Q 130.2 17.52 130.08 14.46 Q 129.976 11.808 129.602 10.283 A 7.958 7.958 0 0 0 129.48 9.84 A 5.245 5.245 0 0 0 128.767 8.267 A 4.392 4.392 0 0 0 127.02 6.78 A 11.089 11.089 0 0 0 123.892 5.819 A 13.23 13.23 0 0 0 122.88 5.7 A 58.658 58.658 0 0 0 120.124 5.545 A 49.385 49.385 0 0 0 118.56 5.52 Z M 129.84 70.68 L 130.32 44.88 Q 130.32 41.64 129.6 38.34 Q 128.88 35.04 126.48 32.88 Q 124.713 31.29 121.515 30.87 A 19.077 19.077 0 0 0 119.04 30.72 Q 114 30.72 110.64 33.3 A 18.631 18.631 0 0 0 105.702 39.085 A 21.894 21.894 0 0 0 105.24 39.96 A 32.105 32.105 0 0 0 102.387 48.632 A 35.637 35.637 0 0 0 102.36 48.78 A 55.644 55.644 0 0 0 101.648 54.356 A 45.351 45.351 0 0 0 101.52 57.72 Q 101.52 61.92 102.84 66.24 A 16.844 16.844 0 0 0 105.322 71.29 A 15.453 15.453 0 0 0 107.22 73.44 A 10.139 10.139 0 0 0 111.679 75.845 Q 113.26 76.261 115.138 76.313 A 19.595 19.595 0 0 0 115.68 76.32 A 14.999 14.999 0 0 0 118.189 76.092 Q 120.42 75.713 123.12 74.7 A 25.163 25.163 0 0 0 126.09 73.375 Q 127.602 72.572 128.775 71.632 A 13.04 13.04 0 0 0 129.84 70.68 Z" id="1" vector-effect="non-scaling-stroke"/><path d="M 175.44 35.04 L 174.48 60.24 Q 174.48 66.84 175.56 70.56 A 7.546 7.546 0 0 0 176.215 72.166 Q 176.746 73.107 177.507 73.629 A 3.883 3.883 0 0 0 179.76 74.28 A 12.594 12.594 0 0 0 182.968 73.888 A 10.199 10.199 0 0 0 185.82 72.66 A 36.119 36.119 0 0 0 190.499 69.148 A 39.701 39.701 0 0 0 190.8 68.88 L 192.36 70.08 L 192.36 71.4 Q 190.32 74.04 187.62 76.74 A 29.393 29.393 0 0 1 182.995 80.533 A 26.64 26.64 0 0 1 181.86 81.24 Q 178.8 83.04 175.44 83.04 Q 172.92 83.04 170.7 82.14 Q 168.48 81.24 167.16 78.36 A 11.32 11.32 0 0 1 166.464 76.267 Q 165.941 74.069 165.856 70.877 A 48.034 48.034 0 0 1 165.84 69.6 L 166.56 43.08 Q 166.56 38.452 165.68 35.701 A 11.724 11.724 0 0 0 165.66 35.64 A 5.595 5.595 0 0 0 165.106 34.416 Q 164.151 32.88 162.36 32.88 A 7.48 7.48 0 0 0 160.872 33.043 Q 159.448 33.333 157.68 34.14 Q 154.92 35.4 152.76 36.72 L 151.2 34.56 Q 155.28 31.32 159.9 28.44 A 25.899 25.899 0 0 1 162.672 26.923 Q 165.606 25.56 168 25.56 Q 172.08 25.56 173.76 28.32 Q 175.44 31.08 175.44 35.04 Z M 176.605 9.565 A 7.275 7.275 0 0 0 177.12 7.08 Q 177.12 4.32 175.44 2.22 A 5.337 5.337 0 0 0 172.656 0.38 A 7.398 7.398 0 0 0 170.64 0.12 Q 168 0.12 165.48 1.92 Q 162.96 3.72 162.96 6.84 A 8.077 8.077 0 0 0 162.96 6.93 A 6.697 6.697 0 0 0 165 11.76 A 8.117 8.117 0 0 0 165.064 11.823 A 6.697 6.697 0 0 0 169.92 13.8 Q 172.8 13.8 174.9 11.94 A 6.371 6.371 0 0 0 176.605 9.565 Z" id="2" vector-effect="non-scaling-stroke"/><path d="M 205.68 12.24 L 215.76 8.76 L 216.6 9.36 Q 216.12 14.52 215.76 19.26 A 180.246 180.246 0 0 0 215.378 26.033 A 210.87 210.87 0 0 0 215.28 29.28 L 216 29.88 L 231.36 29.88 L 231.96 30.36 L 231 33.48 L 230.28 34.08 L 216 34.08 L 215.28 34.8 L 215.28 57.48 Q 215.28 61.68 215.82 65.88 A 19.85 19.85 0 0 0 216.472 69.031 Q 217.112 71.172 218.22 72.78 A 6.052 6.052 0 0 0 222.656 75.411 A 9.124 9.124 0 0 0 223.8 75.48 A 7.932 7.932 0 0 0 225.731 75.223 Q 227.275 74.835 229.08 73.86 A 94.374 94.374 0 0 0 233.377 71.396 A 82.951 82.951 0 0 0 234.72 70.56 L 236.16 70.8 L 237 72.6 Q 232.92 76.44 227.76 79.8 A 22.019 22.019 0 0 1 222.978 82.184 A 17.143 17.143 0 0 1 217.32 83.16 Q 215.407 83.16 213.126 82.474 A 21.11 21.11 0 0 1 212.82 82.38 A 8.334 8.334 0 0 1 208.792 79.582 A 10.125 10.125 0 0 1 208.68 79.44 Q 207.48 77.76 206.88 75.84 Q 206.415 74.351 206.202 71.564 A 53.991 53.991 0 0 1 206.1 69.84 Q 205.962 66.716 205.93 61.271 A 600.361 600.361 0 0 1 205.92 57.72 L 205.92 34.92 L 205.2 34.08 L 191.76 34.08 L 191.16 33.48 L 192 30.6 L 192.72 29.88 L 205.2 29.88 L 205.92 29.16 L 205.92 19.56 Q 205.92 14.52 205.68 12.24 Z" id="3" vector-effect="non-scaling-stroke"/><path d="M 249.84 103.92 L 249.6 102.6 L 254.88 95.88 L 256.44 95.88 A 24.431 24.431 0 0 0 259.704 100.301 A 29.728 29.728 0 0 0 261.6 102.18 A 11.554 11.554 0 0 0 264.993 104.362 A 10.281 10.281 0 0 0 268.92 105.12 A 19.199 19.199 0 0 0 272.284 104.842 Q 274.238 104.494 275.824 103.71 A 10.916 10.916 0 0 0 276.84 103.14 A 15.172 15.172 0 0 0 281.165 99.073 A 14.619 14.619 0 0 0 281.76 98.16 Q 283.56 95.16 284.46 91.92 A 90.734 90.734 0 0 0 285.167 89.223 Q 285.469 87.989 285.697 86.883 A 50.495 50.495 0 0 0 285.84 86.16 Q 286.44 83.16 286.56 80.22 Q 286.68 77.28 286.8 74.4 L 286.08 73.8 Q 281.04 76.92 275.16 79.98 Q 269.28 83.04 263.52 83.04 A 15.73 15.73 0 0 1 260.766 82.814 Q 258.335 82.381 256.68 81.12 Q 254.16 79.2 252.96 76.14 Q 251.76 73.08 251.4 69.66 A 66.524 66.524 0 0 1 251.093 65.598 A 54.166 54.166 0 0 1 251.04 63.24 Q 251.04 59.16 251.28 55.2 A 131.99 131.99 0 0 0 251.497 49.528 A 156.103 156.103 0 0 0 251.52 46.8 Q 251.52 40.79 250.746 37.154 A 20.613 20.613 0 0 0 250.62 36.6 Q 249.818 33.286 246.778 32.924 A 6.59 6.59 0 0 0 246 32.88 Q 244.44 32.88 241.98 34.02 Q 239.52 35.16 237.48 36.24 L 236.16 33.96 Q 236.65 33.568 238.021 32.655 A 120.965 120.965 0 0 1 238.68 32.22 A 86.055 86.055 0 0 1 240.726 30.92 Q 241.808 30.253 243.021 29.543 A 140.344 140.344 0 0 1 243.06 29.52 Q 245.52 28.08 248.16 27 Q 250.8 25.92 252.84 25.92 Q 256.68 25.92 258.54 28.44 A 9.531 9.531 0 0 1 260.391 33.852 A 11.83 11.83 0 0 1 260.4 34.32 Q 260.4 39.36 260.16 44.52 Q 259.92 49.68 259.92 54.96 Q 260.135 59.898 260.493 63.107 A 56.604 56.604 0 0 0 260.58 63.84 Q 261 67.2 261.66 69.06 Q 262.32 70.92 263.28 72.24 Q 264.6 73.92 266.64 74.64 Q 268.68 75.36 270.84 75.36 A 18.016 18.016 0 0 0 278.036 73.826 A 21.642 21.642 0 0 0 279.36 73.2 Q 283.56 71.04 286.92 69.12 Q 287.04 66 287.1 62.76 Q 287.16 59.52 287.16 56.28 Q 287.16 49.8 286.92 43.38 Q 286.68 36.96 286.2 30.72 L 295.68 26.16 L 297.12 26.64 Q 296.52 35.76 296.4 44.88 Q 296.28 54 296.22 62.22 A 462.146 462.146 0 0 1 296.103 69.919 Q 296.015 73.571 295.869 76.83 A 280.386 280.386 0 0 1 295.86 77.04 Q 295.643 81.805 295.083 85.381 A 41.634 41.634 0 0 1 294.6 87.96 A 36.292 36.292 0 0 1 292.262 94.222 A 26.406 26.406 0 0 1 287.94 100.62 Q 283.44 105.48 277.5 107.76 Q 271.56 110.04 265.08 110.04 Q 260.88 110.04 256.56 108.24 A 25.887 25.887 0 0 1 253.478 106.724 Q 251.948 105.832 250.771 104.808 A 13.71 13.71 0 0 1 249.84 103.92 Z" id="4" vector-effect="non-scaling-stroke"/><path d="M 352.2 30.36 L 358.56 26.64 L 359.16 27.24 Q 358.44 40.32 358.44 53.4 A 104.571 104.571 0 0 1 358.415 55.622 Q 358.394 56.611 358.355 57.705 A 199.609 199.609 0 0 1 358.26 60 A 69.354 69.354 0 0 0 358.183 63.247 A 63.025 63.025 0 0 0 358.32 67.44 Q 358.508 70.267 359.215 72.353 A 12.098 12.098 0 0 0 359.64 73.44 A 4.874 4.874 0 0 0 360.398 74.653 Q 361.424 75.831 363.094 75.84 A 4.78 4.78 0 0 0 363.12 75.84 A 6.725 6.725 0 0 0 364.036 75.77 Q 365.15 75.616 366.72 75.12 Q 369 74.4 370.92 73.68 L 371.76 76.56 Q 369.36 78 366.6 79.62 A 51.881 51.881 0 0 1 362.862 81.621 A 44.198 44.198 0 0 1 361.2 82.38 Q 359.347 83.18 357.849 83.419 A 7.7 7.7 0 0 1 356.64 83.52 Q 354.409 83.52 353.025 82.621 A 4.314 4.314 0 0 1 351.84 81.48 A 11.454 11.454 0 0 1 350.488 78.886 A 15.732 15.732 0 0 1 349.8 76.44 L 348 75.96 Q 343.56 78.84 338.64 81.18 Q 333.72 83.52 328.44 83.52 A 19.406 19.406 0 0 1 324.69 83.177 Q 322.061 82.659 320.04 81.36 Q 316.68 79.2 314.64 75.72 Q 312.6 72.24 311.7 68.1 Q 310.8 63.96 310.8 59.88 Q 310.8 53.52 312.42 47.52 Q 314.04 41.52 317.46 36.66 Q 320.88 31.8 326.28 28.98 A 23.779 23.779 0 0 1 332.661 26.78 Q 335.469 26.218 338.689 26.165 A 41.022 41.022 0 0 1 339.36 26.16 A 18.171 18.171 0 0 1 342.205 26.397 Q 343.899 26.666 345.78 27.24 Q 349.32 28.32 352.2 30.36 Z M 349.56 70.2 L 349.56 42.6 A 43.101 43.101 0 0 0 349.436 39.274 A 37.146 37.146 0 0 0 349.32 38.04 Q 349.08 35.88 347.64 34.32 A 13.741 13.741 0 0 0 344.204 31.654 A 15.572 15.572 0 0 0 343.92 31.5 A 9.711 9.711 0 0 0 340.823 30.46 A 8.995 8.995 0 0 0 339.48 30.36 Q 332.88 30.36 328.08 34.92 A 9.496 9.496 0 0 0 326.928 36.256 Q 325.449 38.291 323.94 42 A 25.406 25.406 0 0 0 322.716 46.015 Q 321.788 50.161 321.611 55.907 A 83.675 83.675 0 0 0 321.6 56.28 A 33.002 33.002 0 0 0 321.583 57.344 A 34.331 34.331 0 0 0 322.2 63.78 Q 322.92 67.56 324.96 70.68 Q 326.88 73.68 330.18 74.64 Q 333.48 75.6 336.84 75.6 A 14.67 14.67 0 0 0 343.207 74.123 A 17.113 17.113 0 0 0 343.62 73.92 A 39.424 39.424 0 0 0 347.846 71.44 A 33.788 33.788 0 0 0 349.56 70.2 Z" id="5" vector-effect="non-scaling-stroke"/><path d="M 422.28 42.36 L 422.04 43.32 L 453.6 78.84 L 453.6 79.92 L 441.72 83.04 Q 437.52 77.64 432.84 71.7 Q 428.16 65.76 423.9 60.3 A 528.268 528.268 0 0 0 420.848 56.424 Q 418.425 53.378 416.4 50.94 A 237.05 237.05 0 0 0 414.987 49.254 Q 412.851 46.731 411.84 45.72 A 4.058 4.058 0 0 0 410.96 45.041 A 3.06 3.06 0 0 0 409.44 44.64 A 2514.375 2514.375 0 0 0 409.5 61.98 Q 409.56 70.68 410.04 79.32 L 400.08 82.8 L 398.76 81.72 Q 399.48 68.64 399.66 55.56 Q 399.84 42.48 399.84 29.4 A 32.408 32.408 0 0 0 399.837 29.01 Q 399.827 28.181 399.78 26.4 Q 399.72 24.12 399.66 21 Q 399.6 17.88 399.54 14.58 A 405.204 405.204 0 0 1 399.499 11.842 Q 399.485 10.594 399.481 9.484 A 225.803 225.803 0 0 1 399.48 8.76 Q 399.48 6.844 397.389 5.645 A 6.743 6.743 0 0 0 397.38 5.64 A 16.667 16.667 0 0 0 393.337 3.97 A 15.618 15.618 0 0 0 393.06 3.9 A 59.17 59.17 0 0 0 392.284 3.716 Q 391.087 3.442 390.522 3.379 A 2.615 2.615 0 0 0 390.24 3.36 L 390.36 1.32 L 391.08 0.6 L 423.72 0.6 Q 431.817 0.6 437.558 2.859 A 23.027 23.027 0 0 1 441.42 4.8 A 13.495 13.495 0 0 1 447.865 14.517 A 18.634 18.634 0 0 1 448.08 17.4 A 32.282 32.282 0 0 1 447.591 23.185 Q 446.992 26.47 445.66 29.123 A 18.073 18.073 0 0 1 444.6 30.96 Q 441.12 36.24 435.3 38.88 A 41.036 41.036 0 0 1 426.647 41.659 A 50.155 50.155 0 0 1 422.28 42.36 Z M 416.28 5.28 L 411.48 5.28 A 1.02 1.02 0 0 0 410.593 5.815 Q 410.131 6.54 410.047 8.247 A 14.253 14.253 0 0 0 410.04 8.4 A 99.227 99.227 0 0 0 409.984 9.622 Q 409.905 11.58 409.86 14.28 Q 409.8 17.88 409.68 21.84 Q 409.56 25.8 409.5 29.34 Q 409.446 32.507 409.393 34.665 A 342.042 342.042 0 0 1 409.38 35.16 A 1383.882 1383.882 0 0 0 409.366 35.698 Q 409.32 37.47 409.32 37.68 Q 409.32 38.041 409.456 38.504 A 5.255 5.255 0 0 0 409.56 38.82 A 1.331 1.331 0 0 0 409.713 39.124 Q 409.948 39.463 410.359 39.479 A 1.058 1.058 0 0 0 410.4 39.48 Q 417 39.48 422.94 37.44 A 22.166 22.166 0 0 0 429.498 33.929 A 20.245 20.245 0 0 0 432.6 30.9 A 15.845 15.845 0 0 0 435.88 23.883 A 22.546 22.546 0 0 0 436.32 19.32 A 17.329 17.329 0 0 0 435.994 15.85 Q 435.574 13.795 434.611 12.219 A 9.219 9.219 0 0 0 433.26 10.5 A 15.238 15.238 0 0 0 426.986 6.746 A 18.744 18.744 0 0 0 425.58 6.36 Q 420.96 5.28 416.28 5.28 Z" id="7" vector-effect="non-scaling-stroke"/><path d="M 501.24 30.36 L 507.6 26.64 L 508.2 27.24 Q 507.48 40.32 507.48 53.4 A 104.571 104.571 0 0 1 507.455 55.622 Q 507.434 56.611 507.395 57.705 A 199.609 199.609 0 0 1 507.3 60 A 69.354 69.354 0 0 0 507.223 63.247 A 63.025 63.025 0 0 0 507.36 67.44 Q 507.548 70.267 508.255 72.353 A 12.098 12.098 0 0 0 508.68 73.44 A 4.874 4.874 0 0 0 509.438 74.653 Q 510.464 75.831 512.134 75.84 A 4.78 4.78 0 0 0 512.16 75.84 A 6.725 6.725 0 0 0 513.076 75.77 Q 514.19 75.616 515.76 75.12 Q 518.04 74.4 519.96 73.68 L 520.8 76.56 Q 518.4 78 515.64 79.62 A 51.881 51.881 0 0 1 511.902 81.621 A 44.198 44.198 0 0 1 510.24 82.38 Q 508.387 83.18 506.889 83.419 A 7.7 7.7 0 0 1 505.68 83.52 Q 503.449 83.52 502.065 82.621 A 4.314 4.314 0 0 1 500.88 81.48 A 11.454 11.454 0 0 1 499.528 78.886 A 15.732 15.732 0 0 1 498.84 76.44 L 497.04 75.96 Q 492.6 78.84 487.68 81.18 Q 482.76 83.52 477.48 83.52 A 19.406 19.406 0 0 1 473.73 83.177 Q 471.101 82.659 469.08 81.36 Q 465.72 79.2 463.68 75.72 Q 461.64 72.24 460.74 68.1 Q 459.84 63.96 459.84 59.88 Q 459.84 53.52 461.46 47.52 Q 463.08 41.52 466.5 36.66 Q 469.92 31.8 475.32 28.98 A 23.779 23.779 0 0 1 481.701 26.78 Q 484.509 26.218 487.729 26.165 A 41.022 41.022 0 0 1 488.4 26.16 A 18.171 18.171 0 0 1 491.245 26.397 Q 492.939 26.666 494.82 27.24 Q 498.36 28.32 501.24 30.36 Z M 498.6 70.2 L 498.6 42.6 A 43.101 43.101 0 0 0 498.476 39.274 A 37.146 37.146 0 0 0 498.36 38.04 Q 498.12 35.88 496.68 34.32 A 13.741 13.741 0 0 0 493.244 31.654 A 15.572 15.572 0 0 0 492.96 31.5 A 9.711 9.711 0 0 0 489.863 30.46 A 8.995 8.995 0 0 0 488.52 30.36 Q 481.92 30.36 477.12 34.92 A 9.496 9.496 0 0 0 475.968 36.256 Q 474.489 38.291 472.98 42 A 25.406 25.406 0 0 0 471.756 46.015 Q 470.828 50.161 470.651 55.907 A 83.675 83.675 0 0 0 470.64 56.28 A 33.002 33.002 0 0 0 470.623 57.344 A 34.331 34.331 0 0 0 471.24 63.78 Q 471.96 67.56 474 70.68 Q 475.92 73.68 479.22 74.64 Q 482.52 75.6 485.88 75.6 A 14.67 14.67 0 0 0 492.247 74.123 A 17.113 17.113 0 0 0 492.66 73.92 A 39.424 39.424 0 0 0 496.886 71.44 A 33.788 33.788 0 0 0 498.6 70.2 Z" id="8" vector-effect="non-scaling-stroke"/><path d="M 544.2 79.92 L 535.8 82.8 L 534 81.96 A 271.175 271.175 0 0 0 534.064 80.685 Q 534.165 78.57 534.3 75.24 Q 534.48 70.8 534.66 65.46 Q 534.84 60.12 534.96 55.02 Q 535.042 51.514 535.068 48.716 A 260.759 260.759 0 0 0 535.08 46.32 Q 535.08 42.289 534.755 39.205 A 36.437 36.437 0 0 0 534.36 36.42 Q 533.64 32.52 530.64 32.52 A 6.802 6.802 0 0 0 528.71 32.816 Q 527.911 33.052 527.067 33.476 A 12.864 12.864 0 0 0 526.5 33.78 Q 524.28 35.04 521.64 36.72 L 519.6 34.08 Q 522.12 32.28 525 30.3 Q 527.88 28.32 530.76 26.94 A 17.828 17.828 0 0 1 532.65 26.156 Q 533.61 25.825 534.474 25.678 A 7.902 7.902 0 0 1 535.8 25.56 A 13.594 13.594 0 0 1 538.028 25.729 Q 540.838 26.198 542.16 27.96 Q 543.96 30.36 544.44 33.72 L 545.4 34.44 A 100.448 100.448 0 0 1 553.288 30.052 A 116.771 116.771 0 0 1 556.38 28.56 A 30.393 30.393 0 0 1 562.823 26.367 A 25.053 25.053 0 0 1 568.08 25.8 Q 570.72 25.8 573.18 26.52 Q 575.64 27.24 577.32 29.28 Q 578.52 30.72 579 34.5 Q 579.48 38.28 579.6 42.9 Q 579.72 47.52 579.72 51.36 A 2288.928 2288.928 0 0 0 579.724 55.62 Q 579.731 59.766 579.755 62.89 A 652.943 652.943 0 0 0 579.78 65.52 Q 579.827 69.529 580.525 71.691 A 6.43 6.43 0 0 0 580.98 72.78 Q 581.975 74.613 584.663 74.846 A 9.48 9.48 0 0 0 585.48 74.88 A 6.562 6.562 0 0 0 587.219 74.627 Q 587.986 74.416 588.82 74.029 A 15.298 15.298 0 0 0 590.16 73.32 A 59.516 59.516 0 0 0 594.212 70.706 A 52.86 52.86 0 0 0 595.08 70.08 L 596.64 70.08 L 597.72 72.6 Q 593.64 76.68 588.42 79.98 Q 583.2 83.28 578.88 83.28 A 12.057 12.057 0 0 1 576.418 83.047 Q 573.451 82.427 572.1 80.16 A 12.974 12.974 0 0 1 570.48 75.67 A 17.404 17.404 0 0 1 570.24 72.72 L 570.84 52.2 A 59.439 59.439 0 0 0 570.623 46.95 Q 570.154 41.677 568.67 38.158 A 17.89 17.89 0 0 0 568.62 38.04 Q 566.822 33.86 562.308 33.066 A 13.09 13.09 0 0 0 560.04 32.88 A 15.24 15.24 0 0 0 554.302 34.037 A 19.628 19.628 0 0 0 551.88 35.22 A 57.872 57.872 0 0 0 546.887 38.42 A 48.508 48.508 0 0 0 544.56 40.2 Q 544.32 46.68 544.08 54.12 Q 543.84 61.56 543.84 68.16 Q 543.84 70.68 543.96 73.5 Q 544.072 76.133 544.184 79.445 A 977.203 977.203 0 0 1 544.2 79.92 Z" id="9" vector-effect="non-scaling-stroke"/><path d="M 642.72 30.36 L 649.08 26.64 L 649.68 27.24 Q 648.96 40.32 648.96 53.4 A 104.571 104.571 0 0 1 648.935 55.622 Q 648.914 56.611 648.875 57.705 A 199.609 199.609 0 0 1 648.78 60 A 69.354 69.354 0 0 0 648.703 63.247 A 63.025 63.025 0 0 0 648.84 67.44 Q 649.028 70.267 649.735 72.353 A 12.098 12.098 0 0 0 650.16 73.44 A 4.874 4.874 0 0 0 650.918 74.653 Q 651.944 75.831 653.614 75.84 A 4.78 4.78 0 0 0 653.64 75.84 A 6.725 6.725 0 0 0 654.556 75.77 Q 655.67 75.616 657.24 75.12 Q 659.52 74.4 661.44 73.68 L 662.28 76.56 Q 659.88 78 657.12 79.62 A 51.881 51.881 0 0 1 653.382 81.621 A 44.198 44.198 0 0 1 651.72 82.38 Q 649.867 83.18 648.369 83.419 A 7.7 7.7 0 0 1 647.16 83.52 Q 644.929 83.52 643.545 82.621 A 4.314 4.314 0 0 1 642.36 81.48 A 11.454 11.454 0 0 1 641.008 78.886 A 15.732 15.732 0 0 1 640.32 76.44 L 638.52 75.96 Q 634.08 78.84 629.16 81.18 Q 624.24 83.52 618.96 83.52 A 19.406 19.406 0 0 1 615.21 83.177 Q 612.581 82.659 610.56 81.36 Q 607.2 79.2 605.16 75.72 Q 603.12 72.24 602.22 68.1 Q 601.32 63.96 601.32 59.88 Q 601.32 53.52 602.94 47.52 Q 604.56 41.52 607.98 36.66 Q 611.4 31.8 616.8 28.98 A 23.779 23.779 0 0 1 623.181 26.78 Q 625.989 26.218 629.209 26.165 A 41.022 41.022 0 0 1 629.88 26.16 A 18.171 18.171 0 0 1 632.725 26.397 Q 634.419 26.666 636.3 27.24 Q 639.84 28.32 642.72 30.36 Z M 640.08 70.2 L 640.08 42.6 A 43.101 43.101 0 0 0 639.956 39.274 A 37.146 37.146 0 0 0 639.84 38.04 Q 639.6 35.88 638.16 34.32 A 13.741 13.741 0 0 0 634.724 31.654 A 15.572 15.572 0 0 0 634.44 31.5 A 9.711 9.711 0 0 0 631.343 30.46 A 8.995 8.995 0 0 0 630 30.36 Q 623.4 30.36 618.6 34.92 A 9.496 9.496 0 0 0 617.448 36.256 Q 615.969 38.291 614.46 42 A 25.406 25.406 0 0 0 613.236 46.015 Q 612.308 50.161 612.131 55.907 A 83.675 83.675 0 0 0 612.12 56.28 A 33.002 33.002 0 0 0 612.103 57.344 A 34.331 34.331 0 0 0 612.72 63.78 Q 613.44 67.56 615.48 70.68 Q 617.4 73.68 620.7 74.64 Q 624 75.6 627.36 75.6 A 14.67 14.67 0 0 0 633.727 74.123 A 17.113 17.113 0 0 0 634.14 73.92 A 39.424 39.424 0 0 0 638.366 71.44 A 33.788 33.788 0 0 0 640.08 70.2 Z" id="10" vector-effect="non-scaling-stroke"/><path d="M 694.56 5.52 L 694.44 2.88 L 695.04 2.4 L 714.6 0 L 715.56 1.08 L 715.56 68.88 Q 715.8 71.52 716.64 73.92 A 3.942 3.942 0 0 0 717.341 75.186 Q 718.079 76.054 719.316 76.258 A 4.952 4.952 0 0 0 720.12 76.32 A 3.829 3.829 0 0 0 720.682 76.271 Q 721.606 76.132 723.205 75.593 A 36.161 36.161 0 0 0 723.36 75.54 Q 725.604 74.772 727.383 74.063 A 61.614 61.614 0 0 0 727.44 74.04 L 728.4 76.8 Q 724.92 79.2 720.66 81.78 A 22.372 22.372 0 0 1 717.839 83.242 Q 716.319 83.888 714.913 84.161 A 10.466 10.466 0 0 1 712.92 84.36 A 6.761 6.761 0 0 1 710.74 84.027 Q 708.907 83.406 707.812 81.626 A 7.134 7.134 0 0 1 707.76 81.54 Q 706.08 78.72 705.84 75.6 A 81.377 81.377 0 0 1 699.116 79.72 A 96.167 96.167 0 0 1 695.76 81.48 A 27.392 27.392 0 0 1 690.311 83.547 A 21.508 21.508 0 0 1 684.96 84.24 Q 680.39 84.24 677.184 82.545 A 12.068 12.068 0 0 1 676.38 82.08 Q 672.96 79.92 670.92 76.38 Q 668.88 72.84 667.98 68.64 A 39.952 39.952 0 0 1 667.123 62.224 A 35.583 35.583 0 0 1 667.08 60.48 Q 667.08 54.12 668.82 48.12 Q 670.56 42.12 674.04 37.26 Q 677.52 32.4 682.86 29.52 A 23.456 23.456 0 0 1 689.899 27.115 A 31.787 31.787 0 0 1 695.52 26.64 Q 698.16 26.64 700.62 27.12 Q 703.08 27.6 705.48 28.44 L 706.32 27.96 Q 706.32 24.72 706.26 21.12 Q 706.2 17.52 706.08 14.46 Q 705.976 11.808 705.602 10.283 A 7.958 7.958 0 0 0 705.48 9.84 A 5.245 5.245 0 0 0 704.767 8.267 A 4.392 4.392 0 0 0 703.02 6.78 A 11.089 11.089 0 0 0 699.892 5.819 A 13.23 13.23 0 0 0 698.88 5.7 A 58.658 58.658 0 0 0 696.124 5.545 A 49.385 49.385 0 0 0 694.56 5.52 Z M 705.84 70.68 L 706.32 44.88 Q 706.32 41.64 705.6 38.34 Q 704.88 35.04 702.48 32.88 Q 700.713 31.29 697.515 30.87 A 19.077 19.077 0 0 0 695.04 30.72 Q 690 30.72 686.64 33.3 A 18.631 18.631 0 0 0 681.702 39.085 A 21.894 21.894 0 0 0 681.24 39.96 A 32.105 32.105 0 0 0 678.387 48.632 A 35.637 35.637 0 0 0 678.36 48.78 A 55.644 55.644 0 0 0 677.648 54.356 A 45.351 45.351 0 0 0 677.52 57.72 Q 677.52 61.92 678.84 66.24 A 16.844 16.844 0 0 0 681.322 71.29 A 15.453 15.453 0 0 0 683.22 73.44 A 10.139 10.139 0 0 0 687.679 75.845 Q 689.26 76.261 691.138 76.313 A 19.595 19.595 0 0 0 691.68 76.32 A 14.999 14.999 0 0 0 694.189 76.092 Q 696.42 75.713 699.12 74.7 A 25.163 25.163 0 0 0 702.09 73.375 Q 703.602 72.572 704.775 71.632 A 13.04 13.04 0 0 0 705.84 70.68 Z" id="11" vector-effect="non-scaling-stroke"/><path d="M 778.44 43.8 L 744.6 58.44 A 25.38 25.38 0 0 0 745.615 63.426 A 31.362 31.362 0 0 0 746.58 66.12 Q 748.2 70.08 751.5 72.72 A 11.646 11.646 0 0 0 756.222 74.949 Q 757.886 75.334 759.821 75.358 A 20.83 20.83 0 0 0 760.08 75.36 A 19.894 19.894 0 0 0 768.254 73.566 A 23.904 23.904 0 0 0 769.74 72.84 Q 774.48 70.32 778.56 67.2 L 779.88 67.44 L 781.44 69.6 A 84.048 84.048 0 0 1 773.885 75.861 A 92.355 92.355 0 0 1 773.34 76.26 Q 768.96 79.44 764.1 81.48 Q 759.24 83.52 754.08 83.52 A 23.58 23.58 0 0 1 749.875 83.166 Q 746.617 82.575 744.18 81 Q 740.28 78.48 738.12 74.34 A 30.552 30.552 0 0 1 735.589 67.59 A 36.21 36.21 0 0 1 735.06 65.1 Q 734.16 60 734.16 54.96 Q 734.16 49.68 735.48 44.64 Q 736.8 39.6 740.28 35.52 Q 744.72 30.36 750.9 27.54 Q 757.08 24.72 763.92 24.72 A 20.508 20.508 0 0 1 769.323 25.395 A 15.03 15.03 0 0 1 776.34 29.52 Q 780.96 34.32 780.96 41.28 Q 780.96 42.36 780.18 42.84 A 20.431 20.431 0 0 1 779.246 43.38 A 25.901 25.901 0 0 1 778.44 43.8 Z M 744.36 53.04 L 744.84 53.52 L 769.08 43.92 Q 769.68 43.68 770.16 42.96 Q 770.62 42.27 770.639 40.918 A 8.375 8.375 0 0 0 770.64 40.8 A 10.563 10.563 0 0 0 770.085 37.481 A 13.726 13.726 0 0 0 769.32 35.64 Q 768 33 765.54 31.26 A 9.474 9.474 0 0 0 760.948 29.581 A 12.074 12.074 0 0 0 759.72 29.52 Q 756.72 29.52 754.14 30.84 A 13.698 13.698 0 0 0 749.791 34.374 A 15.746 15.746 0 0 0 749.64 34.56 Q 746.16 38.28 745.14 42.36 Q 744.12 46.44 744.12 50.88 A 8.633 8.633 0 0 0 744.143 51.503 A 10.396 10.396 0 0 0 744.18 51.9 A 12.475 12.475 0 0 0 744.278 52.598 A 14.902 14.902 0 0 0 744.36 53.04 Z" id="12" vector-effect="non-scaling-stroke"/></g></svg>